<svg width="64" height="64" viewBox="0 0 64 64" fill="none" xmlns="http://www.w3.org/2000/svg">
<g clip-path="url(#clip0_9_16)">
<path d="M44 24C44 27.1826 42.7357 30.2348 40.4853 32.4853C38.2348 34.7357 35.1826 36 32 36C28.8174 36 25.7652 34.7357 23.5147 32.4853C21.2643 30.2348 20 27.1826 20 24C20 20.8174 21.2643 17.7652 23.5147 15.5147C25.7652 13.2643 28.8174 12 32 12C35.1826 12 38.2348 13.2643 40.4853 15.5147C42.7357 17.7652 44 20.8174 44 24Z" fill="#FF2400"/>
<path d="M8 0C5.87827 0 3.84344 0.842855 2.34315 2.34315C0.842855 3.84344 0 5.87827 0 8L0 56C0 58.1217 0.842855 60.1566 2.34315 61.6569C3.84344 63.1571 5.87827 64 8 64H56C58.1217 64 60.1566 63.1571 61.6569 61.6569C63.1571 60.1566 64 58.1217 64 56V8C64 5.87827 63.1571 3.84344 61.6569 2.34315C60.1566 0.842855 58.1217 0 56 0L8 0ZM56 4C57.0609 4 58.0783 4.42143 58.8284 5.17157C59.5786 5.92172 60 6.93913 60 8V56C60 57.0609 59.5786 58.0783 58.8284 58.8284C58.0783 59.5786 57.0609 60 56 60V56C56 52 52 40 32 40C12 40 8 52 8 56V60C6.93913 60 5.92172 59.5786 5.17157 58.8284C4.42143 58.0783 4 57.0609 4 56V8C4 6.93913 4.42143 5.92172 5.17157 5.17157C5.92172 4.42143 6.93913 4 8 4H56Z" fill="#FF2400"/>
</g>
<defs>
<clipPath id="clip0_9_16">
<rect width="64" height="64" fill="white"/>
</clipPath>
</defs>
</svg>
