<svg width="48" height="48" viewBox="0 0 48 48" fill="none" xmlns="http://www.w3.org/2000/svg">
<path d="M37.5 48C40.2848 48 42.9555 46.8938 44.9246 44.9246C46.8938 42.9555 48 40.2848 48 37.5C48 34.7152 46.8938 32.0445 44.9246 30.0754C42.9555 28.1062 40.2848 27 37.5 27C34.7152 27 32.0445 28.1062 30.0754 30.0754C28.1062 32.0445 27 34.7152 27 37.5C27 40.2848 28.1062 42.9555 30.0754 44.9246C32.0445 46.8938 34.7152 48 37.5 48ZM39 33V36H42C42.3978 36 42.7794 36.158 43.0607 36.4393C43.342 36.7206 43.5 37.1022 43.5 37.5C43.5 37.8978 43.342 38.2794 43.0607 38.5607C42.7794 38.842 42.3978 39 42 39H39V42C39 42.3978 38.842 42.7794 38.5607 43.0607C38.2794 43.342 37.8978 43.5 37.5 43.5C37.1022 43.5 36.7206 43.342 36.4393 43.0607C36.158 42.7794 36 42.3978 36 42V39H33C32.6022 39 32.2206 38.842 31.9393 38.5607C31.658 38.2794 31.5 37.8978 31.5 37.5C31.5 37.1022 31.658 36.7206 31.9393 36.4393C32.2206 36.158 32.6022 36 33 36H36V33C36 32.6022 36.158 32.2206 36.4393 31.9393C36.7206 31.658 37.1022 31.5 37.5 31.5C37.8978 31.5 38.2794 31.658 38.5607 31.9393C38.842 32.2206 39 32.6022 39 33ZM33 15C33 17.3869 32.0518 19.6761 30.364 21.364C28.6761 23.0518 26.3869 24 24 24C21.6131 24 19.3239 23.0518 17.636 21.364C15.9482 19.6761 15 17.3869 15 15C15 12.6131 15.9482 10.3239 17.636 8.63604C19.3239 6.94821 21.6131 6 24 6C26.3869 6 28.6761 6.94821 30.364 8.63604C32.0518 10.3239 33 12.6131 33 15Z" fill="#FF2400"/>
<path d="M6 39C6 42 9 42 9 42H24.768C24.2584 40.5545 23.9987 39.0327 24 37.5C24 35.5709 24.4134 33.6642 25.2124 31.9083C26.0114 30.1524 27.1775 28.5882 28.632 27.321C27.232 27.111 25.688 27.004 24 27C9 27 6 36 6 39Z" fill="#FF2400"/>
</svg>
